<mxfile host="65bd71144e">
    <diagram id="WAO5Mam5BiRmqSdbNAsz" name="第1頁">
        <mxGraphModel dx="820" dy="372" grid="1" gridSize="10" guides="1" tooltips="1" connect="1" arrows="1" fold="1" page="1" pageScale="1" pageWidth="827" pageHeight="1169" math="0" shadow="0">
            <root>
                <mxCell id="0"/>
                <mxCell id="1" parent="0"/>
                <mxCell id="8" value="觀眾" style="rounded=0;whiteSpace=wrap;html=1;fontSize=24;fillColor=none;fontColor=#000000;strokeColor=#000000;" parent="1" vertex="1">
                    <mxGeometry x="110" y="720" width="320" height="60" as="geometry"/>
                </mxCell>
                <mxCell id="9" value="查看故事&lt;br style=&quot;font-size: 24px;&quot;&gt;回覆故事" style="whiteSpace=wrap;html=1;aspect=fixed;fontSize=24;fillColor=none;fontColor=#000000;strokeColor=#000000;" parent="1" vertex="1">
                    <mxGeometry x="110" y="780" width="320" height="320" as="geometry"/>
                </mxCell>
                <mxCell id="11" value="發佈故事&lt;br style=&quot;font-size: 24px;&quot;&gt;刪除故事&lt;br style=&quot;font-size: 24px;&quot;&gt;保存故事到精選&lt;br style=&quot;font-size: 24px;&quot;&gt;查看誰看過故事" style="whiteSpace=wrap;html=1;aspect=fixed;fontSize=24;fillColor=none;fontColor=#000000;strokeColor=#000000;" parent="1" vertex="1">
                    <mxGeometry x="110" y="100" width="320" height="320" as="geometry"/>
                </mxCell>
                <mxCell id="12" value="用戶" style="rounded=0;whiteSpace=wrap;html=1;fontSize=24;fillColor=none;fontColor=#000000;strokeColor=#000000;" parent="1" vertex="1">
                    <mxGeometry x="110" y="40" width="320" height="60" as="geometry"/>
                </mxCell>
                <mxCell id="15" style="edgeStyle=none;html=1;exitX=0.5;exitY=0;exitDx=0;exitDy=0;entryX=1;entryY=0.5;entryDx=0;entryDy=0;fontSize=24;fillColor=none;fontColor=#000000;strokeColor=#000000;" parent="1" source="13" target="11" edge="1">
                    <mxGeometry relative="1" as="geometry">
                        <Array as="points">
                            <mxPoint x="570" y="260"/>
                        </Array>
                    </mxGeometry>
                </mxCell>
                <mxCell id="16" style="edgeStyle=none;html=1;fontSize=24;entryX=1;entryY=0.5;entryDx=0;entryDy=0;fillColor=none;fontColor=#000000;strokeColor=#000000;" parent="1" source="13" target="9" edge="1">
                    <mxGeometry relative="1" as="geometry">
                        <mxPoint x="439.9999999999998" y="910" as="targetPoint"/>
                        <Array as="points">
                            <mxPoint x="570" y="940"/>
                        </Array>
                    </mxGeometry>
                </mxCell>
                <mxCell id="13" value="IG故事功能" style="rounded=0;whiteSpace=wrap;html=1;fontSize=24;fillColor=none;fontColor=#000000;strokeColor=#000000;" parent="1" vertex="1">
                    <mxGeometry x="470" y="520" width="200" height="60" as="geometry"/>
                </mxCell>
            </root>
        </mxGraphModel>
    </diagram>
</mxfile>